<svg xmlns="http://www.w3.org/2000/svg" version="1.1" xmlns:xlink="http://www.w3.org/1999/xlink" xmlns:svgjs="http://svgjs.dev/svgjs" width="1000" height="1000" viewBox="0 0 1000 1000"><rect width="1000" height="1000" fill="#000000"></rect><g transform="matrix(0.7,0,0,0.7,149.57575757575756,287.77512836798076)"><svg viewBox="0 0 396 240" data-background-color="#ffffff" preserveAspectRatio="xMidYMid meet" height="606" width="1000" xmlns="http://www.w3.org/2000/svg" xmlns:xlink="http://www.w3.org/1999/xlink"><g id="tight-bounds" transform="matrix(1,0,0,1,0.2400000000000091,0.07064873098687485)"><svg viewBox="0 0 395.52 239.85870253802625" height="239.85870253802625" width="395.52"><g><svg viewBox="0 0 395.52 239.85870253802625" height="239.85870253802625" width="395.52"><g transform="matrix(1,0,0,1,0,174.6291193752386)"><svg viewBox="0 0 395.52 65.22958316278766" height="65.22958316278766" width="395.52"><g id="textblocktransform"><svg viewBox="0 0 395.52 65.22958316278766" height="65.22958316278766" width="395.52" id="textblock"><g><svg viewBox="0 0 395.52 35.18172025461074" height="35.18172025461074" width="395.52"><g transform="matrix(1,0,0,1,0,0)"><svg width="395.52" viewBox="2.049999952316284 -26.149999618530273 306.33001708984375 27.25" height="35.18172025461074" data-palette-color="#ecab55"><path d="M28.5-25.35L28.5-25.35 30.15-25.35Q33.35-25.35 34.9-26.1L34.9-26.1Q32.7-22.85 30.65-20.45L30.65-20.45 29.85-20.45Q27.3-20.45 24.9-21.25L24.9-21.25Q21.5-18.45 19.45-13.8L19.45-13.8Q24.75-12.45 31.25-12.2L31.25-12.2Q32.75-8.4 33.3 0L33.3 0 20.35 0Q19.5-3.7 17.78-6.83 16.05-9.95 14.2-11.1L14.2-11.1Q13.85-7 13.85-4.5 13.85-2 14 0L14 0 3 0Q2.05-7.35 2.05-12.43 2.05-17.5 2.8-25L2.8-25 16.7-25Q15.2-18.8 14.65-14.6L14.65-14.6Q16.9-18.3 19.38-20.83 21.85-23.35 25.25-25.1L25.25-25.1Q26.55-25.35 28.5-25.35ZM38.9-25L52.4-25 52.4-23.65Q52.4-10.45 50.75 0L50.75 0 38.75 0Q39.7-4.6 39.7-10.63 39.7-16.65 38.9-25L38.9-25ZM70.9-26.15L70.9-26.15Q80.55-26.15 86.6-23.75L86.6-23.75Q88.75-19.45 88.75-15.05L88.75-15.05Q88.75-9.4 84.9-5.25L84.9-5.25Q79.3 0.7 69.75 0.7L69.75 0.7Q66.45 0.7 60.8-0.05L60.8-0.05Q58.85-10.1 58.85-18.6L58.85-18.6Q58.85-21.55 59.15-25L59.15-25Q67.2-26.15 70.9-26.15ZM72.4-22.4L72.4-22.4Q71.5-13 71.5-8.93 71.5-4.85 71.65-2.3L71.65-2.3Q74.35-3.75 75.87-7.18 77.4-10.6 77.4-14.13 77.4-17.65 76.12-19.9 74.85-22.15 72.4-22.4ZM97.19-0.15L97.19-0.15Q92.74-5.85 92.74-11.85 92.74-17.85 97.74-22 102.74-26.15 110.54-26.15L110.54-26.15Q114.69-26.15 118.79-24.9L118.79-24.9Q122.39-20.35 122.39-15.15L122.39-15.15Q122.39-8.6 117.04-3.75 111.69 1.1 104.09 1.1L104.09 1.1Q100.84 1.1 97.19-0.15ZM104.79-21.8L104.79-21.8Q103.04-18.8 103.04-14.75 103.04-10.7 104.82-7.28 106.59-3.85 109.69-2.35L109.69-2.35Q112.04-5.35 112.04-9.3 112.04-13.25 110.12-16.65 108.19-20.05 104.79-21.8ZM155.14-3.85Q157.49-3.3 159.64-3.3 161.79-3.3 163.06-4.28 164.34-5.25 164.94-7.65L164.94-7.65 170.94-7.45Q170.19-2.95 168.94 0L168.94 0 144.39 0Q143.44-6.4 143.44-13.25 143.44-20.1 144.14-25L144.14-25 158.54-25Q155.24-12.35 155.14-3.85L155.14-3.85ZM192.29-14.95L192.29-14.95 196.99-14.65Q197.69-14.65 198.04-14.7L198.04-14.7 195.69-10.3 195.24-10.3Q194.29-10.3 192.54-10.83 190.79-11.35 190.04-11.35L190.04-11.35Q187.99-11.35 186.79-8.7L186.79-8.7Q186.59-6.25 186.49-3.8L186.49-3.8Q189.09-3.3 190.59-3.3L190.59-3.3 191.04-3.3Q193.19-3.3 194.46-4.25 195.74-5.2 196.29-7.65L196.29-7.65 202.29-7.4Q201.54-3.1 200.29 0L200.29 0 175.74 0Q174.74-6.75 174.74-13.4 174.74-20.05 175.44-25L175.44-25 202.24-25Q201.34-19.6 200.64-17.4L200.64-17.4Q197.69-17.25 195.24-17.2L195.24-17.2Q195.64-18.35 195.64-19.35L195.64-19.35Q195.64-21.75 192.04-21.75L192.04-21.75Q190.69-21.75 189.04-21.45L189.04-21.45Q187.94-16.7 187.34-13.1L187.34-13.1Q189.34-14.95 192.29-14.95ZM239.58-0.4L239.58-0.4 239.58 0 227.98 0Q227.78-2.75 227.13-5.9L227.13-5.9Q223.63-2.4 220.13 0L220.13 0 208.48 0Q208.13-2.05 208.13-5.43 208.13-8.8 209.13-12.2L209.13-12.2Q212.73-13.25 216.06-15.75 219.38-18.25 220.88-21.15L220.88-21.15Q219.48-23.35 218.03-25L218.03-25 234.63-25Q239.58-14.15 239.58-0.4ZM226.23-9.55L226.23-9.55Q224.98-13.85 222.83-17.95L222.83-17.95Q220.48-11.05 220.13-4.9L220.13-4.9Q223.83-6.9 226.23-9.55ZM271.58-16.3L271.58-16.3 271.53-14.6Q267.53-12.45 261.53-11.25L261.53-11.25Q265.83-10.1 269.83-10.1L269.83-10.1 270.88-10.1Q273.63-6.05 274.43 0L274.43 0 261.48 0Q260.98-3.5 259.46-6.03 257.93-8.55 255.73-9.45L255.73-9.45Q255.68-8.6 255.68-6.05 255.68-3.5 255.98 0L255.98 0 245.08 0Q243.63-7.25 243.63-13.48 243.63-19.7 244.33-25L244.33-25 270.43-25Q271.58-19.95 271.58-16.3ZM256.78-21.65L256.78-21.65Q256.18-17.25 255.88-13L255.88-13Q258.63-13.4 260.38-14.95L260.38-14.95Q259.43-18.3 256.78-21.65ZM302.13-25L308.08-25Q308.38-19.75 308.38-13.93 308.38-8.1 307.88 0L307.88 0 303.08 0Q293.38-5.2 285.28-14.15L285.28-14.15Q285.68-10.8 285.68-7.28 285.68-3.75 285.43 0L285.43 0 279.58 0Q280.58-6.15 280.58-11.38 280.58-16.6 280.08-19.65L280.08-19.65Q278.08-22.65 276.93-25L276.93-25 291.13-25Q293.23-21.4 296.85-17.57 300.48-13.75 303.78-11.6L303.78-11.6Q303.78-18.9 302.13-25L302.13-25Z" opacity="1" transform="matrix(1,0,0,1,0,0)" fill="#ffffff" class="wordmark-text-0" data-fill-palette-color="primary" id="text-0"></path></svg></g></svg></g><g transform="matrix(1,0,0,1,119.83829988112475,43.487280045438226)"><svg viewBox="0 0 155.84340023775047 21.742303117349437" height="21.742303117349437" width="155.84340023775047"><g transform="matrix(1,0,0,1,0,0)"><svg width="155.84340023775047" viewBox="3.8499999046325684 -38 275.57000732421875 38.45000076293945" height="21.742303117349437" data-palette-color="#ecab55"><path d="M43.8-0.4L43.8-0.4Q42.65 0.4 41.43 0.4 40.2 0.4 39.55-0.38 38.9-1.15 38.7-3L38.7-3 36.8-30.15 25.45-1.8Q24.95-0.45 23.58-0.48 22.2-0.5 21.75-1.8L21.75-1.8 10.7-30.2 8.85-3.15Q8.55 0.45 6.2 0.45L6.2 0.45Q5 0.45 3.85-0.6L3.85-0.6Q4.55-1.2 4.75-3.25L4.75-3.25 6.95-32.55Q6.95-32.75 6.95-32.95L6.95-32.95Q6.95-34.4 6.25-35.25L6.25-35.25Q7.8-36.25 9.4-36.25L9.4-36.25Q12.6-36.25 14.05-32.15L14.05-32.15 23.8-7.35 33.95-32.1Q35.4-36.25 38.85-36.25L38.85-36.25Q40.2-36.25 41.65-35.4L41.65-35.4Q40.9-34.65 40.9-33.1L40.9-33.1Q40.9-32.9 40.9-32.7L40.9-32.7 43.05-3.3Q43.15-1.1 43.8-0.4ZM55-6.4L55-6.4Q55-2.8 58.92-2.8 62.85-2.8 65.4-6.25L65.4-6.25 65.4-12.2Q60.1-11.9 57.55-10.33 55-8.75 55-6.4ZM69.55-17.8L69.55-17.8 69.55-4.5Q69.55-1.85 72-1.5L72-1.5Q71.05 0.45 68.85 0.45L68.85 0.45Q65.7 0.45 65.4-3.6L65.4-3.6Q62.5 0.45 57.6 0.45L57.6 0.45Q54.5 0.45 52.5-1.25 50.5-2.95 50.5-5.95L50.5-5.95Q50.5-9.65 54.22-11.93 57.95-14.2 65.4-14.4L65.4-14.4 65.4-17.4Q65.4-20.5 64.3-21.98 63.2-23.45 60.82-23.45 58.45-23.45 57.25-22.48 56.05-21.5 56.05-20.28 56.05-19.05 56.75-18.3L56.75-18.3Q55.7-17.5 54.42-17.5 53.15-17.5 52.35-18.2 51.55-18.9 51.55-20.2L51.55-20.2Q51.55-22.55 54.25-24.2 56.95-25.85 60.9-25.85 64.85-25.85 67.2-23.73 69.55-21.6 69.55-17.8ZM83.65-22.2L82.95-22.2 82.95-6.35Q82.95-4.5 83.67-3.7 84.4-2.9 86.05-2.9L86.05-2.9Q89.15-2.9 91.9-5.55L91.9-5.55Q92.75-5.1 92.75-4.1L92.75-4.1Q92.75-2.4 90.55-0.98 88.35 0.45 85.15 0.45L85.15 0.45Q78.75 0.45 78.75-6.2L78.75-6.2 78.75-22.2Q74.7-22.35 74.7-24.15L74.7-24.15Q74.7-25.1 75.3-25.6L75.3-25.6Q77.05-25.35 78-25.35L78-25.35 78.75-25.35 78.75-29.4Q78.75-30.8 77.5-31.4L77.5-31.4Q78.5-32.95 80.1-32.95L80.1-32.95Q82.95-32.95 82.95-29.45L82.95-29.45 82.95-25.35 91.35-25.35Q91.55-25 91.55-24.5L91.55-24.5Q91.55-22.2 83.65-22.2L83.65-22.2ZM119.34-17.25L119.34-17.25 119.34-3.1Q119.34-1.7 120.64-1.15L120.64-1.15Q119.59 0.45 117.99 0.45L117.99 0.45Q115.24 0.45 115.24-3.05L115.24-3.05 115.24-16.95Q115.24-22.2 110.64-22.2L110.64-22.2Q108.14-22.2 105.89-20.2 103.64-18.2 102.79-14.85L102.79-14.85 102.79-3.1Q102.79-1.65 104.04-1.15L104.04-1.15Q102.99 0.45 101.44 0.45L101.44 0.45Q98.64 0.45 98.64-3.05L98.64-3.05 98.64-34.45Q98.64-35.9 97.39-36.45L97.39-36.45Q98.24-38 99.99-38L99.99-38Q102.79-38 102.79-34.55L102.79-34.55 102.79-19.75Q104.09-22.45 106.49-24.15 108.89-25.85 112.12-25.85 115.34-25.85 117.34-23.68 119.34-21.5 119.34-17.25ZM144.16-36.5Q145.44-36.5 146.26-35.77 147.09-35.05 147.09-33.77 147.09-32.5 146.01-31.48 144.94-30.45 143.59-30.45 142.24-30.45 141.39-31.25 140.54-32.05 140.54-33.35 140.54-34.65 141.71-35.58 142.89-36.5 144.16-36.5ZM146.09-22.35L146.09-22.35 146.09-3.1Q146.09-1.65 147.34-1.15L147.34-1.15Q146.29 0.45 144.74 0.45L144.74 0.45Q141.94 0.45 141.94-3.05L141.94-3.05 141.94-22.25Q141.94-23.7 140.69-24.25L140.69-24.25Q141.64-25.85 143.29-25.85L143.29-25.85Q146.09-25.85 146.09-22.35ZM171.71-18.98Q170.89-18.3 169.74-18.3 168.59-18.3 167.79-18.9L167.79-18.9Q168.09-19.4 168.09-20.35 168.09-21.3 166.94-22.2 165.79-23.1 163.49-23.1 161.19-23.1 159.84-22.08 158.49-21.05 158.49-19.65 158.49-18.25 159.99-17.13 161.49-16 163.59-15.08 165.69-14.15 167.81-13.1 169.94-12.05 171.44-10.43 172.94-8.8 172.94-6.8L172.94-6.8Q172.94-3.85 170.14-1.7 167.34 0.45 163.04 0.45 158.74 0.45 156.04-1.2 153.34-2.85 153.34-5.45L153.34-5.45Q153.34-7 154.21-7.88 155.09-8.75 156.31-8.75 157.54-8.75 158.24-7.9L158.24-7.9Q157.54-6.95 157.54-5.6 157.54-4.25 158.91-3.28 160.29-2.3 162.91-2.3 165.54-2.3 167.11-3.43 168.69-4.55 168.69-6.18 168.69-7.8 167.21-9 165.74-10.2 163.64-11.08 161.54-11.95 159.41-12.93 157.29-13.9 155.81-15.4 154.34-16.9 154.34-18.8L154.34-18.8Q154.34-21.8 156.94-23.83 159.54-25.85 163.31-25.85 167.09-25.85 169.79-24.48 172.49-23.1 172.49-20.85L172.49-20.85Q172.54-19.65 171.71-18.98ZM198.03-34.55L198.03-34.55 198.03-3.1Q198.03-1.65 199.28-1.15L199.28-1.15Q198.23 0.45 196.68 0.45L196.68 0.45Q193.88 0.45 193.88-3.05L193.88-3.05 193.88-34.45Q193.88-35.9 192.63-36.45L192.63-36.45Q193.48-38 195.23-38L195.23-38Q198.03-38 198.03-34.55ZM222.3-20.38Q220.03-23 216.58-23 213.13-23 211.23-20.63 209.33-18.25 209.33-13.65L209.33-13.65Q209.33-7.7 211.65-5.03 213.98-2.35 217.43-2.35 220.88-2.35 222.73-4.75 224.58-7.15 224.58-11.75L224.58-11.75Q224.58-17.75 222.3-20.38ZM208.55-22.4Q212.03-25.85 216.98-25.85 221.93-25.85 225.4-22.38 228.88-18.9 228.88-12.68 228.88-6.45 225.4-3 221.93 0.45 216.98 0.45 212.03 0.45 208.55-3 205.08-6.45 205.08-12.7 205.08-18.95 208.55-22.4ZM244.28-2.5L251.28-20.9Q251.73-22.1 251.73-23.15 251.73-24.2 251.03-24.95L251.03-24.95Q252.18-25.85 253.25-25.85 254.33-25.85 255.03-25.15 255.73-24.45 255.73-23.38 255.73-22.3 255.13-20.9L255.13-20.9 247.98-3.1Q247.23-1.15 246.43-0.38 245.63 0.4 244.2 0.4 242.78 0.4 241.93-0.4 241.08-1.2 240.43-3.1L240.43-3.1 234.08-21.65Q233.43-23.4 232.03-23.5L232.03-23.5Q232.08-24.55 232.88-25.2 233.68-25.85 234.73-25.85L234.73-25.85Q237.23-25.85 238.28-22.45L238.28-22.45 244.28-2.5ZM263.72-14.65L273.07-15.4Q275.12-15.55 275.12-17.78 275.12-20 273.85-21.48 272.57-22.95 270.27-22.95 267.97-22.95 266.07-20.75 264.17-18.55 263.72-14.65L263.72-14.65ZM263.62-12.5Q263.62-7.6 265.75-5.25 267.87-2.9 271.82-2.9 275.77-2.9 278.37-5.5L278.37-5.5Q279.12-5.1 279.12-4.15L279.12-4.15Q279.12-2.5 276.72-1.03 274.32 0.45 271.02 0.45L271.02 0.45Q265.87 0.45 262.57-2.8 259.27-6.05 259.27-11.93 259.27-17.8 262.85-21.83 266.42-25.85 271.07-25.85L271.07-25.85Q274.77-25.85 277.1-23.3 279.42-20.75 279.42-17.5L279.42-17.5Q279.42-15.15 278.15-14.03 276.87-12.9 274.02-12.8L274.02-12.8 263.62-12.5Z" opacity="1" transform="matrix(1,0,0,1,0,0)" fill="#ffffff" class="slogan-text-1" data-fill-palette-color="secondary" id="text-1"></path></svg></g></svg></g></svg></g></svg></g><g transform="matrix(1,0,0,1,118.75100010320818,0)"><svg viewBox="0 0 158.0179997935836 158.0179997935836" height="158.0179997935836" width="158.0179997935836"><g><svg></svg></g><g id="icon-0"><svg viewBox="0 0 158.0179997935836 158.0179997935836" height="158.0179997935836" width="158.0179997935836"><g><path d="M0 79.009c0-43.635 35.374-79.009 79.009-79.009 43.635 0 79.009 35.374 79.009 79.009 0 43.635-35.374 79.009-79.009 79.009-43.635 0-79.009-35.374-79.009-79.009zM79.009 154.845c41.883 0 75.836-33.953 75.836-75.836 0-41.883-33.953-75.836-75.836-75.836-41.883 0-75.836 33.953-75.836 75.836 0 41.883 33.953 75.836 75.836 75.836z" data-fill-palette-color="accent" fill="#ffffff" stroke="transparent"></path><ellipse rx="78.21890989782389" ry="78.21890989782389" cx="79.0089998967918" cy="79.0089998967918" fill="#ffffff" stroke="transparent" stroke-width="0" fill-opacity="1" data-fill-palette-color="accent"></ellipse></g><g transform="matrix(1,0,0,1,35.275334260021005,34.02660844669978)"><svg viewBox="0 0 87.4673312735416 89.96478290018405" height="89.96478290018405" width="87.4673312735416"><g><svg xmlns="http://www.w3.org/2000/svg" xmlns:xlink="http://www.w3.org/1999/xlink" version="1.1" x="0" y="0" viewBox="15.985998153686523 16 68.01399993896484 69.95600128173828" enable-background="new 0 0 100 100" xml:space="preserve" height="89.96478290018405" width="87.4673312735416" class="icon-s-0" data-fill-palette-color="quaternary" id="s-0"><path d="M40.987 25.852v5.295h-9.853V41h-5.298v-9.853h-9.85v-5.295h9.85V16h5.298v9.852H40.987z" fill="#000000" data-fill-palette-color="quaternary"></path><path d="M62.5 25.512h18v6.68h-18V25.512z" fill="#000000" data-fill-palette-color="quaternary"></path><path d="M24.497 72.167l-8.404-8.457 4.018-4.018 8.402 8.457 8.459-8.457 4.016 4.018-8.509 8.457 8.509 8.457-4.016 4.018-8.459-8.51-8.508 8.51-4.018-4.018L24.497 72.167z" fill="#000000" data-fill-palette-color="quaternary"></path><path d="M84 68.877v5.295H59v-5.295H84zM68.579 58.258c0.842-0.808 1.823-1.213 2.945-1.213 0.562 0 1.09 0.107 1.585 0.322 0.495 0.216 0.933 0.512 1.311 0.891 0.379 0.381 0.685 0.826 0.917 1.337 0.23 0.512 0.347 1.063 0.347 1.658 0 0.528-0.117 1.04-0.347 1.535-0.231 0.496-0.53 0.94-0.892 1.335-0.363 0.397-0.792 0.711-1.287 0.94-0.494 0.232-1.023 0.347-1.583 0.347-0.594 0-1.148-0.107-1.658-0.32-0.514-0.215-0.959-0.512-1.337-0.892-0.379-0.379-0.685-0.824-0.917-1.336-0.23-0.511-0.347-1.047-0.347-1.609C67.315 60.064 67.736 59.067 68.579 58.258zM67.662 80.164c0.231-0.496 0.538-0.933 0.917-1.311 0.378-0.379 0.824-0.677 1.337-0.893 0.51-0.213 1.047-0.32 1.607-0.32 0.562 0 1.09 0.107 1.585 0.32 0.495 0.216 0.933 0.514 1.311 0.893 0.379 0.378 0.685 0.815 0.917 1.311 0.23 0.496 0.347 1.04 0.347 1.634 0 0.496-0.117 0.991-0.347 1.484-0.231 0.496-0.53 0.941-0.892 1.338-0.363 0.396-0.792 0.717-1.287 0.965-0.494 0.248-1.023 0.371-1.583 0.371-0.594 0-1.148-0.115-1.658-0.347-0.514-0.229-0.959-0.536-1.337-0.915-0.379-0.38-0.685-0.826-0.917-1.337-0.23-0.512-0.347-1.031-0.347-1.559C67.315 81.203 67.432 80.659 67.662 80.164z" fill="#000000" data-fill-palette-color="quaternary"></path></svg></g></svg></g></svg></g></svg></g><g></g></svg></g><defs></defs></svg><rect width="395.52" height="239.85870253802625" fill="none" stroke="none" visibility="hidden"></rect></g></svg></g></svg>