<svg xmlns="http://www.w3.org/2000/svg" version="1.1" xmlns:xlink="http://www.w3.org/1999/xlink" xmlns:svgjs="http://svgjs.dev/svgjs" width="1000" height="1125" viewBox="0 0 1000 1125"><g transform="matrix(1,0,0,1,1.7053025658242404e-13,0)"><svg viewBox="0 0 320 360" data-background-color="#ea3c12" preserveAspectRatio="xMidYMid meet" height="1125" width="1000" xmlns="http://www.w3.org/2000/svg" xmlns:xlink="http://www.w3.org/1999/xlink"><g id="tight-bounds" transform="matrix(1,0,0,1,0,0)"><svg viewBox="0 0 320 360" height="360" width="320"><g><svg></svg></g><g><svg viewBox="0 0 320 360" height="360" width="320"><g><path xmlns="http://www.w3.org/2000/svg" d="M20.961 227.22l3.726 4.658-1.863-6.056c-0.466-2.795-3.726 0.466-1.863 1.398M25.153 224.425c1.397 2.329 2.795 4.658 2.795 6.987 0 3.261 2.795 4.658 5.123 5.589-3.261-3.726-5.124-13.974-7.918-12.576M204.017 26.929c7.918 0 15.371-0.932 23.756 0.931 20.495 5.124 37.729 15.371 49.374 29.811l32.606 52.169c1.397 13.042 4.192 27.482 3.726 43.319 3.261 0 2.795-4.658 6.521-5.59-3.726 9.316-5.59 20.961-6.521 34.469-2.329-7.453 0-18.632 0.466-24.687-3.261 5.124-5.124 1.397-5.124-0.932 0.466-3.726-1.397-3.261-2.795-4.658-5.124-4.658-8.384-9.782-12.11-17.7 2.329-6.055 2.795-14.905-4.658-19.563-2.329-1.397-5.124-3.726-6.521-7.453-1.863-5.124-5.124-11.179-4.193-19.097 0.466-2.329-6.987 5.124-11.179 1.863-18.166-12.576-36.332-27.016-58.224-39.127-11.645 0-20.029-4.192-24.221-9.316-3.726-4.658-0.932-10.713 4.658-11.179 3.261 0 6.987-0.932 9.782 0.932 0.466-1.863 2.329-4.192 4.657-4.192M157.904 16.215l0.932 0.466c4.658 0.932 6.987 7.453 12.11 5.124 0 3.261 0.466 6.521-0.466 8.85-1.397 3.726-5.59 3.726-8.85 3.726-31.208-1.863-49.374 11.179-68.471 22.358-5.124 3.261-10.713 5.59-14.906 9.782-20.029 18.632-41.921 35.866-47.045 70.335l-4.192 38.195c-0.466 4.192-5.124 8.384-4.192 13.508l3.26 22.824c-3.261-3.261-5.124 0.932-4.192 2.795 0.466 1.397 2.329 6.055 5.124 1.863 3.726 6.987 7.453 20.495 12.576 26.55 15.837 18.632 36.332 35.4 53.101 52.169 4.192-0.932 7.453-0.932 8.384-3.727 1.397 2.795-1.397 5.59-3.726 6.056 7.453 4.658 15.837 8.85 27.016 9.781 14.44 0.932 27.948 3.261 40.524 6.522 6.521-1.863 13.042-2.795 20.029-3.261 2.329 0 3.726-3.726 6.521-4.658l0.466-4.658c2.795 4.192 2.329-1.397 0.466-4.192 3.261 2.795 4.192 5.124 5.589 6.987 0-1.397 3.726-6.521 3.727-0.466l0.931-6.055c1.397-0.932 1.863 5.124 3.261 0.931 1.397-4.192 4.192-0.932 6.987-2.329-0.932 1.863-0.466 5.59 2.794 3.261l3.727-3.261c2.329 5.59 6.055 3.261 7.918 2.329 20.495-13.042 40.99-28.413 60.553-43.784l-0.466 6.055 2.329-7.453c2.329 2.329 4.192 0.466 5.124-0.931 2.795-4.658 6.521-9.316 12.577-13.508-7.453 20.029-16.303 35.866-27.482 48.908l-4.658 5.59c0 3.261-0.932 7.453-4.658 7.918-1.863 0.466-5.59-0.932-8.384 1.863-1.397 1.863 3.261 5.59-0.466 2.795-3.261-2.329-6.521 0-10.248 0.932-2.795 0.932 1.863 3.726 2.795 5.589 0.932 1.863 1.863 3.726 1.398 6.056l-5.124-5.59c-6.055 3.261-9.782 9.316-14.906 13.974-2.329 1.863-1.397 5.124-1.397 7.918-3.261 0-6.987-0.932-8.85 0.932-1.397 1.863-0.932 4.658-0.932 7.453-4.658-0.466-5.124-7.453-9.315-6.056-4.192 0.932-8.85 1.397-12.577 3.727 2.795 5.59-4.658 2.329-3.726 3.26-6.987-4.192-13.042-7.453-20.495-4.658-15.837-5.124-35.4-2.795-49.84-0.931 0-2.329 0.466-4.658-0.466-5.124-0.932 2.329-3.726 1.397-3.26 1.397-8.85-6.055-17.7-9.782-27.016-14.905-8.384 0.932-16.303-3.261-18.632-5.59-6.521-6.055-13.974-2.795-20.029-4.192-13.042-3.261-17.7-16.769-19.098-26.084-0.932-4.658-4.658-6.521-6.055-6.056-6.055-19.563-15.371-37.263-22.824-55.429-1.863-4.658-1.397-9.316-1.397-14.44 2.329 0.932 4.658 0.466 4.192-2.794-2.329-15.371-7.918-27.016-13.974-38.195 3.261-15.837 3.726-34.469 11.179-48.443 6.521-12.576 18.632-19.098 27.016-29.811 2.795-3.726 2.795-8.85 5.59-12.11 9.316-9.316 18.632-19.098 28.879-27.482 4.658-3.726 10.247 0 17.234-1.397 2.329-8.384 11.645-15.837 20.495-13.508 3.726 0.932 11.179-8.85 13.508-9.782 3.726-1.397 1.863 3.726 1.863 6.987 8.85-6.987 20.961-10.713 32.14-14.906" fill="#ffffff" fill-rule="nonzero" stroke="none" stroke-width="1" stroke-linecap="butt" stroke-linejoin="miter" stroke-miterlimit="10" stroke-dasharray="" stroke-dashoffset="0" font-family="none" font-weight="none" font-size="none" text-anchor="none" style="mix-blend-mode: normal" data-fill-palette-color="tertiary"></path></g><g transform="matrix(1,0,0,1,64,120.6074522939272)"><svg viewBox="0 0 192 118.78509541214561" height="118.78509541214561" width="192"><g><svg viewBox="0 0 192 118.78509541214561" height="118.78509541214561" width="192"><g><svg viewBox="0 0 192 118.78509541214561" height="118.78509541214561" width="192"><g transform="matrix(1,0,0,1,0,70.63591912664322)"><svg viewBox="0 0 192 48.1491762855024" height="48.1491762855024" width="192"><g id="textblocktransform"><svg viewBox="0 0 192 48.1491762855024" height="48.1491762855024" width="192" id="textblock"><g><svg viewBox="0 0 192 28.054038404093166" height="28.054038404093166" width="192"><g transform="matrix(1,0,0,1,0,0)"><svg width="192" viewBox="4.579999923706055 -33.27000045776367 230.75999450683594 33.730690002441406" height="28.054038404093166" data-palette-color="#ffffff"><path d="M23.1-3.51L23.1 0 4.58 0 4.58-33.27 8.44-33.27 8.44-3.51 23.1-3.51ZM38.72 0.46L38.72 0.46Q33.19 0.46 29.98-2.91L29.98-2.91Q26.79-6.27 26.79-12.29 26.79-18.3 29.75-21.84L29.75-21.84Q32.76-25.38 37.6-25.38 42.44-25.38 45.17-22.3 47.9-19.21 47.9-14.18L47.9-14.18 47.9-11.78 30.71-11.78Q30.84-7.41 32.93-5.12 35.03-2.83 38.99-2.83 42.94-2.83 46.81-4.52L46.81-4.52 46.81-1.16Q44.87-0.3 43.05 0.08 41.23 0.46 38.72 0.46ZM30.81-14.86L43.85-14.86Q43.85-18.43 42.26-20.32 40.67-22.22 37.7-22.22 34.73-22.22 32.92-20.27 31.11-18.33 30.81-14.86L30.81-14.86ZM56.42-6.85L56.42-6.85Q56.42-4.83 57.65-3.74 58.89-2.65 61.12-2.65L61.12-2.65Q64.68-2.65 66.68-4.59 68.68-6.52 68.68-10.01L68.68-10.01 68.68-12.26 64.91-12.11Q60.41-11.93 58.41-10.69 56.42-9.45 56.42-6.85ZM72.47-17.01L72.47 0 69.66 0 68.9-3.54 68.73-3.54Q66.86-1.21 65.01-0.38 63.16 0.46 60.38 0.46L60.38 0.46Q56.64 0.46 54.56-1.47 52.47-3.39 52.47-6.9L52.47-6.9Q52.47-14.43 64.53-14.81L64.53-14.81 68.78-14.94 68.78-16.48Q68.78-19.46 67.51-20.84 66.25-22.22 63.3-22.22 60.36-22.22 56.42-20.32L56.42-20.32 55.25-23.21Q59.2-25.35 63.7-25.35 68.2-25.35 70.33-23.36 72.47-21.36 72.47-17.01L72.47-17.01ZM91.6-25.38L91.6-25.38Q93.32-25.38 94.58-25.13L94.58-25.13 94.08-21.61Q92.59-21.94 91.35-21.94L91.35-21.94Q88.31-21.94 86.17-19.49 84.02-17.04 84.02-13.37L84.02-13.37 84.02 0 80.23 0 80.23-24.92 83.36-24.92 83.79-20.32 83.97-20.32Q85.36-22.78 87.32-24.08 89.27-25.38 91.6-25.38ZM120.09-16.25L120.09 0 116.29 0 116.29-16.13Q116.29-19.21 114.9-20.69 113.51-22.17 110.58-22.17L110.58-22.17Q106.66-22.17 104.84-20.06 103.02-17.95 103.02-13.07L103.02-13.07 103.02 0 99.23 0 99.23-24.92 102.32-24.92 102.92-21.51 103.1-21.51Q104.26-23.33 106.36-24.36 108.46-25.38 111.04-25.38L111.04-25.38Q115.59-25.38 117.84-23.18 120.09-20.98 120.09-16.25L120.09-16.25ZM164.22-14.18L164.22-33.27 167.83-33.27 167.83 0 163.41 0 145.23-27.91 145.06-27.91Q145.41-22.83 145.41-18.91L145.41-18.91 145.41 0 141.85 0 141.85-33.27 146.22-33.27 164.34-5.46 164.52-5.46Q164.14-12.01 164.22-14.18L164.22-14.18ZM178.08-21.99Q181.15-25.38 186.46-25.38 191.77-25.38 194.85-21.9 197.93-18.43 197.93-12.42 197.93-6.42 194.85-2.96L194.85-2.96Q191.77 0.46 186.38 0.46L186.38 0.46Q181.3 0.51 178.12-3.06 174.93-6.62 175.01-12.49L175.01-12.49Q175.01-18.6 178.08-21.99ZM186.41-22.17L186.41-22.17Q178.93-22.17 178.93-12.49L178.93-12.49Q178.93-7.71 180.83-5.21 182.74-2.7 186.46-2.7 190.17-2.7 192.1-5.19 194.02-7.68 194.02-12.47 194.02-17.26 192.1-19.72 190.17-22.17 186.41-22.17ZM235.34-24.92L228.44 0 223.97 0 219.39-14.64Q218.89-16.25 217.78-20.73L217.78-20.73 217.6-20.73Q216.69-16.73 216.01-14.59L216.01-14.59 211.3 0 206.93 0 200.13-24.92 204.08-24.92Q206.96-13.78 207.98-9.76 209-5.74 209.21-3.99L209.21-3.99 209.38-3.99Q209.71-5.61 210.28-7.68 210.85-9.76 211.15-10.62L211.15-10.62 215.73-24.92 219.82-24.92 224.27-10.62Q225.56-6.72 226.02-4.04L226.02-4.04 226.19-4.04Q226.32-5.01 226.88-7.37 227.43-9.73 231.43-24.92L231.43-24.92 235.34-24.92Z" opacity="1" transform="matrix(1,0,0,1,0,0)" fill="#ffffff" class="wordmark-text-0" data-fill-palette-color="primary" id="text-0"></path></svg></g></svg></g><g transform="matrix(1,0,0,1,0,32.14779590417206)"><svg viewBox="0 0 192 16.001380381330343" height="16.001380381330343" width="192"><g transform="matrix(1,0,0,1,0,0)"><svg width="192" viewBox="0.6299999952316284 -40.15999984741211 565.9099731445312 47.16999816894531" height="16.001380381330343" data-palette-color="#ffffff"><path d="M12.23-0.98L12.23-0.98Q12.38-0.98 12.38-0.78L12.38-0.78 12.38-0.2Q12.38 0 12.23 0L12.23 0 0.83 0Q0.63 0 0.63-0.2L0.63-0.2 0.63-0.78Q0.63-0.98 0.83-0.98L0.83-0.98Q4.83-0.98 5.18-4.42L5.18-4.42Q5.27-5.42 5.38-7.75 5.49-10.08 6.03-17.79 6.57-25.49 6.57-30.25L6.57-30.25 6.57-31.15Q6.57-32.13 5.46-32.79 4.35-33.45 3.83-33.45 3.32-33.45 3.32-33.64L3.32-33.64 3.32-34.23Q3.32-34.42 3.52-34.42L3.52-34.42 10.57-34.42Q11.04-34.35 11.33-33.89L11.33-33.89 22.78-8.37Q22.9-8.2 22.97-8.08 23.05-7.96 23.34-7.97 23.63-7.98 23.78-8.4L23.78-8.4 35.11-33.45Q35.62-34.42 36.04-34.42L36.04-34.42 43.14-34.42Q43.33-34.42 43.33-34.23L43.33-34.23 43.33-33.64Q43.33-33.45 43.21-33.45L43.21-33.45Q42.48-33.45 41.41-32.96L41.41-32.96Q39.77-32.23 39.77-30.79L39.77-30.79 41.24-3.81Q41.28-2.54 42.55-1.76 43.82-0.98 45.87-0.98L45.87-0.98Q46.07-0.98 46.07-0.78L46.07-0.78 46.07-0.2Q46.07 0 45.87 0L45.87 0 32.01 0Q31.81 0 31.81-0.2L31.81-0.2 31.81-0.78Q31.81-0.98 32.01-0.98L32.01-0.98Q36.38-0.98 36.38-3.1L36.38-3.1 35.08-26.42Q35.06-26.66 34.95-26.66 34.84-26.66 34.77-26.44L34.77-26.44 22.63-0.17Q22.53 0 22.07 0 21.61 0 21.53-0.2L21.53-0.2 9.57-26.51Q9.42-26.86 9.29-26.86 9.16-26.86 9.16-26.32L9.16-26.32Q9.16-25.2 8.57-15.72 7.98-6.25 7.98-3.91L7.98-3.91 7.98-2.91Q8.28-1.51 10.74-1.1L10.74-1.1Q11.45-0.98 12.23-0.98ZM63.89-4.03Q63.89-3.39 64.49-3.02 65.09-2.64 65.87-2.64 66.65-2.64 67.17-3.04 67.7-3.44 67.89-3.44 68.09-3.44 68.09-2.92 68.09-2.39 67.6-2.03L67.6-2.03Q63.94 0.66 62.64 0.66L62.64 0.66Q61.08 0.66 60.1-2.59L60.1-2.59Q60.03-2.83 59.98-2.81L59.98-2.81Q56.96-0.54 56.17-0.07L56.17-0.07Q54.17 1.07 52.16 0.29 50.14-0.49 49.24-2.29L49.24-2.29Q48.8-3.22 48.8-4.27L48.8-4.27Q48.8-6.35 50.34-7.57 51.88-8.79 56.2-9.91L56.2-9.91Q57.66-10.3 58.81-10.91 59.96-11.52 60.02-11.69 60.08-11.87 60.08-12.01L60.08-12.01 60.08-16.7Q60.08-19.46 57.93-20.58L57.93-20.58Q57.22-20.95 56.24-20.95 55.25-20.95 54.23-20.17 53.22-19.38 53.22-17.94L53.22-17.94 53.34-16.99Q53.2-16.7 51.58-16.02 49.97-15.33 49.73-15.28L49.73-15.28Q49.34-15.28 49.34-16.22 49.34-17.16 49.9-18.31 50.46-19.46 51.49-20.41L51.49-20.41Q53.88-22.63 56.96-22.63 60.03-22.63 61.96-20.94 63.89-19.24 63.89-16.89L63.89-16.89 63.89-4.03ZM52.63-4.74Q52.63-3.56 53.54-2.7 54.44-1.83 55.6-1.83 56.76-1.83 58.42-2.82 60.08-3.81 60.08-4.86L60.08-4.86 60.08-9.81Q60.08-10.08 59.96-10.08 59.84-10.08 59.79-10.06L59.79-10.06 54.12-7.42Q53.24-6.79 52.94-6.35 52.63-5.91 52.63-4.74ZM82.25-18.95L82.25-16.7Q82.25-16.16 81.84-16.16 81.44-16.16 81.22-16.75L81.22-16.75Q80.63-18.36 79.47-19.6 78.32-20.85 76.61-20.85L76.61-20.85Q74.36-20.85 73.58-18.6L73.58-18.6Q73.33-17.85 73.33-17.04 73.33-16.24 74.36-15.25 75.39-14.26 77.73-12.89 80.07-11.52 81.15-10.57L81.15-10.57Q83.59-8.4 83.59-5.54 83.59-2.69 81.49-1.01 79.39 0.66 76.61 0.66L76.61 0.66Q75.12 0.66 73.91 0.26 72.7-0.15 72.52-0.15 72.33-0.15 71.93 0.26 71.53 0.66 71.28 0.66L71.28 0.66 70.87 0.66Q70.72 0.66 70.5-1.98 70.28-4.61 70.28-5.1 70.28-5.59 70.37-5.64 70.45-5.69 70.65-5.69 70.84-5.69 70.98-5.57 71.11-5.44 71.21-5.26 71.31-5.08 71.37-4.88 71.43-4.69 71.67-4.15L71.67-4.15Q73.33-0.61 76.8-0.61L76.8-0.61Q78.34-0.61 79.27-1.75 80.2-2.88 80.2-4.27 80.2-5.66 79.46-6.62 78.73-7.57 77.64-8.35 76.56-9.13 75.29-9.86L75.29-9.86Q70.36-12.74 70.36-16.24L70.36-16.24Q70.36-18.85 72.6-20.74 74.85-22.63 77.22-22.63 79.58-22.63 80.72-22.12 81.86-21.61 82.05-21.25 82.25-20.9 82.25-18.95L82.25-18.95ZM100.41-18.77L93.06-18.77Q92.91-18.77 92.91-18.55L92.91-18.55 92.91-5.08Q92.91-3.61 93.56-2.78 94.21-1.95 95.21-1.95 96.21-1.95 96.95-2.28 97.7-2.61 98.25-3 98.8-3.39 99.24-3.72 99.68-4.05 100.02-4.05 100.36-4.05 100.36-3.88L100.36-3.88Q100.36-3.3 100.24-3.13L100.24-3.13Q97.31 0.66 94.58 0.66 91.86 0.66 90.48-1.06 89.1-2.78 89.1-5.18L89.1-5.18 89.1-18.77 87.27-18.77Q86.59-18.77 86.55-19.21 86.52-19.65 86.69-19.78L86.69-19.78Q87.98-20.61 90.25-22.75L90.25-22.75Q90.5-23.02 90.91-23.56 91.33-24.1 92.12-25.02 92.91-25.95 93.33-25.95 93.74-25.95 93.74-25.61L93.74-25.61Q93.74-25.56 92.91-22.41L92.91-22.41Q92.91-21.97 93.3-21.95L93.3-21.95 99.53-21.95Q100.6-21.95 100.6-18.92L100.6-18.92Q100.6-18.77 100.41-18.77L100.41-18.77ZM121.01-12.87L106.85-12.87Q106.44-12.87 106.44-11.08L106.44-11.08Q106.44-7.3 108.68-4.74 110.93-2.17 114.26-2.17 117.59-2.17 120.67-5.05L120.67-5.05Q120.72-5.1 120.79-5.1L120.79-5.1 120.91-5.1Q121.06-5.1 121.19-4.87 121.33-4.64 121.45-4.57L121.45-4.57Q118.62-1.12 114.78 0.2L114.78 0.2Q113.47 0.66 111.81 0.66 110.15 0.66 108.44-0.26 106.73-1.17 105.51-2.66L105.51-2.66Q102.92-5.76 102.92-10.39 102.92-15.01 105.74-18.82 108.56-22.63 113.49-22.63L113.49-22.63Q117.03-22.63 119.28-19.47 121.52-16.31 121.52-13.92L121.52-13.92Q121.52-12.87 121.01-12.87L121.01-12.87ZM107.12-15.5L107.12-15.21Q107.12-14.75 107.56-14.75L107.56-14.75 116.76-14.75Q117.4-14.75 117.4-15.5L117.4-15.5Q117.4-17.26 115.82-19.1 114.25-20.95 112.37-20.95L112.37-20.95Q110.54-20.95 109.04-19.29 107.53-17.63 107.12-15.5L107.12-15.5ZM140.47-17.5L140.47-17.5Q140.17-17.55 139.61-17.82L139.61-17.82Q137.59-18.75 136.44-18.75 135.29-18.75 134.03-17.32 132.78-15.89 132.78-14.75L132.78-14.75 132.78-3.71Q132.78-1.88 134.9-1.27L134.9-1.27Q135.83-1.03 136.63-0.92 137.44-0.81 137.67-0.71 137.9-0.61 137.9-0.33 137.9-0.05 137.66 0L137.66 0 125.43 0Q125.18-0.05 125.18-0.34L125.18-0.34Q125.18-0.78 126.33-0.93L126.33-0.93Q128.97-1.32 128.97-3.71L128.97-3.71 128.97-16.63Q128.97-17.65 127.84-18.04L127.84-18.04Q127.36-18.21 126.79-18.32 126.23-18.43 125.9-18.53 125.57-18.63 125.49-18.71 125.4-18.8 125.4-19.08 125.4-19.36 125.77-19.56L125.77-19.56 131.99-22.49Q132.29-22.63 132.36-22.63L132.36-22.63Q132.78-22.63 132.78-22.05L132.78-22.05 132.78-18.09Q132.78-17.8 132.92-17.8L132.92-17.8Q133.12-17.8 133.92-18.95L133.92-18.95Q136.24-22.19 137.76-22.19L137.76-22.19Q138.61-22.19 140.38-21.51 142.15-20.83 142.15-20.36L142.15-20.36Q142.15-19.8 141.59-18.65 141.03-17.5 140.47-17.5ZM167.8-0.98L167.8-0.98Q167.95-0.98 167.95-0.78L167.95-0.78 167.95-0.2Q167.95 0 167.8 0L167.8 0 156.4 0Q156.21 0 156.21-0.2L156.21-0.2 156.21-0.78Q156.21-0.98 156.4-0.98L156.4-0.98Q160.41-0.98 160.75-4.42L160.75-4.42Q160.85-5.42 160.96-7.75 161.07-10.08 161.6-17.79 162.14-25.49 162.14-30.25L162.14-30.25 162.14-31.15Q162.14-32.13 161.03-32.79 159.92-33.45 159.41-33.45 158.89-33.45 158.89-33.64L158.89-33.64 158.89-34.23Q158.89-34.42 159.09-34.42L159.09-34.42 166.14-34.42Q166.61-34.35 166.9-33.89L166.9-33.89 178.35-8.37Q178.47-8.2 178.55-8.08 178.62-7.96 178.91-7.97 179.21-7.98 179.35-8.4L179.35-8.4 190.68-33.45Q191.19-34.42 191.61-34.42L191.61-34.42 198.71-34.42Q198.91-34.42 198.91-34.23L198.91-34.23 198.91-33.64Q198.91-33.45 198.79-33.45L198.79-33.45Q198.05-33.45 196.98-32.96L196.98-32.96Q195.34-32.23 195.34-30.79L195.34-30.79 196.81-3.81Q196.86-2.54 198.13-1.76 199.4-0.98 201.45-0.98L201.45-0.98Q201.64-0.98 201.64-0.78L201.64-0.78 201.64-0.2Q201.64 0 201.45 0L201.45 0 187.58 0Q187.38 0 187.38-0.2L187.38-0.2 187.38-0.78Q187.38-0.98 187.58-0.98L187.58-0.98Q191.95-0.98 191.95-3.1L191.95-3.1 190.66-26.42Q190.63-26.66 190.52-26.66 190.41-26.66 190.34-26.44L190.34-26.44 178.21-0.17Q178.11 0 177.64 0 177.18 0 177.11-0.2L177.11-0.2 165.14-26.51Q165-26.86 164.86-26.86 164.73-26.86 164.73-26.32L164.73-26.32Q164.73-25.2 164.14-15.72 163.56-6.25 163.56-3.91L163.56-3.91 163.56-2.91Q163.85-1.51 166.32-1.1L166.32-1.1Q167.02-0.98 167.8-0.98ZM219.46-4.03Q219.46-3.39 220.06-3.02 220.66-2.64 221.44-2.64 222.22-2.64 222.75-3.04 223.27-3.44 223.47-3.44 223.66-3.44 223.66-2.92 223.66-2.39 223.17-2.03L223.17-2.03Q219.51 0.66 218.22 0.66L218.22 0.66Q216.65 0.66 215.68-2.59L215.68-2.59Q215.61-2.83 215.56-2.81L215.56-2.81Q212.53-0.54 211.75-0.07L211.75-0.07Q209.75 1.07 207.73 0.29 205.72-0.49 204.81-2.29L204.81-2.29Q204.37-3.22 204.37-4.27L204.37-4.27Q204.37-6.35 205.91-7.57 207.45-8.79 211.77-9.91L211.77-9.91Q213.24-10.3 214.38-10.91 215.53-11.52 215.59-11.69 215.65-11.87 215.65-12.01L215.65-12.01 215.65-16.7Q215.65-19.46 213.51-20.58L213.51-20.58Q212.8-20.95 211.81-20.95 210.82-20.95 209.81-20.17 208.79-19.38 208.79-17.94L208.79-17.94 208.92-16.99Q208.77-16.7 207.16-16.02 205.55-15.33 205.3-15.28L205.3-15.28Q204.91-15.28 204.91-16.22 204.91-17.16 205.47-18.31 206.03-19.46 207.06-20.41L207.06-20.41Q209.45-22.63 212.53-22.63 215.61-22.63 217.53-20.94 219.46-19.24 219.46-16.89L219.46-16.89 219.46-4.03ZM208.21-4.74Q208.21-3.56 209.11-2.7 210.01-1.83 211.17-1.83 212.33-1.83 213.99-2.82 215.65-3.81 215.65-4.86L215.65-4.86 215.65-9.81Q215.65-10.08 215.53-10.08 215.41-10.08 215.36-10.06L215.36-10.06 209.7-7.42Q208.82-6.79 208.51-6.35 208.21-5.91 208.21-4.74ZM239.26-18.77L231.91-18.77Q231.76-18.77 231.76-18.55L231.76-18.55 231.76-5.08Q231.76-3.61 232.41-2.78 233.06-1.95 234.06-1.95 235.06-1.95 235.81-2.28 236.55-2.61 237.1-3 237.65-3.39 238.09-3.72 238.53-4.05 238.87-4.05 239.21-4.05 239.21-3.88L239.21-3.88Q239.21-3.3 239.09-3.13L239.09-3.13Q236.16 0.66 233.44 0.66 230.71 0.66 229.34-1.06 227.96-2.78 227.96-5.18L227.96-5.18 227.96-18.77 226.12-18.77Q225.44-18.77 225.4-19.21 225.37-19.65 225.54-19.78L225.54-19.78Q226.83-20.61 229.1-22.75L229.1-22.75Q229.35-23.02 229.76-23.56 230.18-24.1 230.97-25.02 231.76-25.95 232.18-25.95 232.59-25.95 232.59-25.61L232.59-25.61Q232.59-25.56 231.76-22.41L231.76-22.41Q231.76-21.97 232.16-21.95L232.16-21.95 238.38-21.95Q239.46-21.95 239.46-18.92L239.46-18.92Q239.46-18.77 239.26-18.77L239.26-18.77ZM248.39-39.58L248.39-18.9Q248.39-18.31 248.56-18.31 248.73-18.31 248.8-18.4 248.88-18.48 249.83-19.53L249.83-19.53Q252.59-22.61 255.42-22.61L255.42-22.61Q259.13-22.61 260.86-20.95L260.86-20.95Q262.99-18.85 262.99-13.89L262.99-13.89 262.99-3.71Q262.99-1.32 265.62-0.93L265.62-0.93Q266.77-0.78 266.77-0.42 266.77-0.05 266.53 0L266.53 0 255.64 0Q255.39-0.05 255.39-0.34L255.39-0.34Q255.39-0.78 256.54-0.93L256.54-0.93Q259.18-1.32 259.18-3.71L259.18-3.71 259.18-13.65Q259.18-17.24 258.67-18.31L258.67-18.31Q257.69-20.46 254.59-20.46L254.59-20.46Q252.68-20.46 250.54-18.84 248.39-17.21 248.39-15.26L248.39-15.26 248.39-3.71Q248.39-1.32 251.02-0.93L251.02-0.93Q252.17-0.78 252.17-0.42 252.17-0.05 251.93 0L251.93 0 241.04 0Q240.8-0.05 240.8-0.34L240.8-0.34Q240.8-0.78 241.94-0.93L241.94-0.93Q244.58-1.32 244.58-3.71L244.58-3.71 244.58-34.16Q244.58-35.18 243.46-35.57L243.46-35.57Q242.97-35.74 242.41-35.85 241.85-35.96 241.52-36.06 241.19-36.16 241.1-36.24 241.02-36.33 241.02-36.61 241.02-36.89 241.38-37.08L241.38-37.08 247.61-40.01Q247.9-40.16 247.97-40.16L247.97-40.16Q248.39-40.16 248.39-39.58L248.39-39.58ZM277.24-1.27L277.24-1.27Q277.24 3.27 272.97 6.3L272.97 6.3Q271.99 7.01 271.51 7.01L271.51 7.01Q271.14 7.01 271.14 6.35L271.14 6.35Q271.14 5.96 271.66 5.6 272.19 5.25 272.43 5.03L272.43 5.03Q274.9 2.81 274.9 1L274.9 1Q274.9 0.29 274.62 0.15 274.34 0 273.41 0 272.48 0 271.47-0.71 270.46-1.42 270.46-2.78 270.46-4.15 271.12-4.74L271.12-4.74Q272.24-5.76 273.26-5.76L273.26-5.76Q275.17-5.76 276.21-4.26 277.24-2.76 277.24-1.27ZM324.92-2.1Q322.79-0.81 320.28-0.07 317.77 0.66 315.81 0.66L315.81 0.66Q311.81 0.66 308.17-0.63L308.17-0.63Q303.19-2.44 300.16-5.98L300.16-5.98Q296.31-10.5 296.31-17.43L296.31-17.43Q296.31-22.44 298.87-26.55 301.43-30.66 305.96-33.06 310.49-35.45 315.7-35.45 320.91-35.45 325.04-33.13 329.17-30.81 331.66-26.76 334.15-22.71 334.15-17.98 334.15-13.26 331.68-9 329.22-4.74 324.92-2.1L324.92-2.1ZM301.43-18.21Q301.43-14.16 303.23-10.17 305.02-6.18 308.37-3.66 311.71-1.15 316.11-1.15L316.11-1.15Q322.36-1.15 325.85-5.93L325.85-5.93Q329-10.25 329-16.97 329-23.68 325.14-28.54L325.14-28.54Q323.26-30.91 320.54-32.34 317.81-33.76 315.04-33.76 312.27-33.76 310.5-33.15 308.73-32.54 307.29-31.48 305.85-30.42 304.75-28.96 303.65-27.49 302.92-25.78L302.92-25.78Q301.43-22.27 301.43-18.21ZM356.46-7.69L356.46-7.69 356.41-12.84Q356.41-15.99 355.87-17.26 355.34-18.53 354.51-19.18 353.68-19.82 352.27-19.82 350.87-19.82 346.33-17.63L346.33-17.63Q345.72-17.26 345.69-16.94L345.69-16.94 345.69-3.81Q345.69-1.34 348.33-0.98L348.33-0.98Q349.48-0.81 349.48-0.43 349.48-0.05 349.23 0L349.23 0 338.34 0Q338.1-0.05 338.1-0.34L338.1-0.34Q338.1-0.81 339.25-0.98L339.25-0.98Q341.88-1.34 341.88-3.81L341.88-3.81 341.88-17.82Q341.88-18.85 340.76-19.24L340.76-19.24Q340.27-19.41 339.71-19.52 339.15-19.63 338.82-19.73 338.49-19.82 338.4-19.91 338.32-20 338.32-20.28 338.32-20.56 338.69-20.75L338.69-20.75 344.91-23.68Q345.2-23.83 345.28-23.83L345.28-23.83Q345.69-23.83 345.69-23.24L345.69-23.24 345.69-19.43Q345.77-19.19 345.89-19.19L345.89-19.19Q346.03-19.19 346.94-19.63L346.94-19.63Q349.04-20.68 351.16-21.66 353.29-22.63 354.68-22.63L354.68-22.63Q360.32-22.63 360.32-12.35L360.32-12.35 360.1-5.22 360.1-3.81Q360.1-1.9 362-1.32L362-1.32Q362.81-1.05 363.55-0.94 364.3-0.83 364.53-0.73 364.76-0.63 364.76-0.34 364.76-0.05 364.52 0L364.52 0 352.75 0Q352.5-0.05 352.5-0.34L352.5-0.34Q352.5-0.81 353.65-0.98L353.65-0.98Q356.26-1.34 356.26-4L356.26-4Q356.46-5.22 356.46-7.69ZM385.05-12.87L370.89-12.87Q370.47-12.87 370.47-11.08L370.47-11.08Q370.47-7.3 372.72-4.74 374.96-2.17 378.3-2.17 381.63-2.17 384.7-5.05L384.7-5.05Q384.75-5.1 384.83-5.1L384.83-5.1 384.95-5.1Q385.09-5.1 385.23-4.87 385.36-4.64 385.48-4.57L385.48-4.57Q382.65-1.12 378.82 0.2L378.82 0.2Q377.5 0.66 375.84 0.66 374.18 0.66 372.47-0.26 370.76-1.17 369.54-2.66L369.54-2.66Q366.95-5.76 366.95-10.39 366.95-15.01 369.77-18.82 372.59-22.63 377.53-22.63L377.53-22.63Q381.07-22.63 383.31-19.47 385.56-16.31 385.56-13.92L385.56-13.92Q385.56-12.87 385.05-12.87L385.05-12.87ZM371.15-15.5L371.15-15.21Q371.15-14.75 371.59-14.75L371.59-14.75 380.8-14.75Q381.43-14.75 381.43-15.5L381.43-15.5Q381.43-17.26 379.86-19.1 378.28-20.95 376.4-20.95L376.4-20.95Q374.57-20.95 373.07-19.29 371.57-17.63 371.15-15.5L371.15-15.5ZM418.41 0L403.81 0Q403.62 0 403.62-0.49L403.62-0.49 403.62-0.78Q403.62-0.98 403.86-0.98 404.11-0.98 404.58-1.12 405.06-1.27 405.3-1.32L405.3-1.32Q407.79-1.88 407.79-4.15L407.79-4.15 407.79-29.93Q407.79-32.18 406.96-32.8 406.13-33.42 403.96-33.42L403.96-33.42 402.86-33.42Q402.35-33.42 402.35-34.01L402.35-34.01Q402.35-34.35 402.67-34.42L402.67-34.42 402.84-34.42 416.53-34.79 419-34.79Q423.37-34.5 426.28-31.64 429.18-28.78 429.18-24.79 429.18-20.8 426.32-17.55L426.32-17.55Q425.08-16.11 423.52-15.22 421.95-14.33 420.44-14.31L420.44-14.31 413.12-14.6 412.92-14.6Q412.56-14.6 412.56-14.26L412.56-14.26 412.56-4.22Q412.56-2.88 413.29-2.25 414.02-1.61 416.39-1.25L416.39-1.25Q416.71-1.2 417.41-1.09 418.12-0.98 418.37-0.98 418.61-0.98 418.61-0.78L418.61-0.78 418.61-0.2Q418.61 0 418.41 0L418.41 0ZM414.53-33.56Q414.24-33.54 413.91-33.53 413.58-33.52 413.07-33.51 412.56-33.5 412.56-33.11L412.56-33.11 412.56-17.36 412.6-16.63Q412.68-16.11 413.07-16.09L413.07-16.09 415.56-15.94Q419.49-15.94 421.89-18.58 424.3-21.22 424.3-25.21 424.3-29.2 421.97-31.4 419.64-33.59 415.75-33.59L415.75-33.59Q415.41-33.59 415.12-33.58 414.83-33.57 414.53-33.56ZM447.49-17.5L447.49-17.5Q447.2-17.55 446.63-17.82L446.63-17.82Q444.61-18.75 443.46-18.75 442.31-18.75 441.06-17.32 439.8-15.89 439.8-14.75L439.8-14.75 439.8-3.71Q439.8-1.88 441.92-1.27L441.92-1.27Q442.85-1.03 443.66-0.92 444.46-0.81 444.69-0.71 444.93-0.61 444.93-0.33 444.93-0.05 444.68 0L444.68 0 432.45 0Q432.21-0.05 432.21-0.34L432.21-0.34Q432.21-0.78 433.35-0.93L433.35-0.93Q435.99-1.32 435.99-3.71L435.99-3.71 435.99-16.63Q435.99-17.65 434.87-18.04L434.87-18.04Q434.38-18.21 433.82-18.32 433.26-18.43 432.93-18.53 432.6-18.63 432.51-18.71 432.43-18.8 432.43-19.08 432.43-19.36 432.79-19.56L432.79-19.56 439.02-22.49Q439.31-22.63 439.38-22.63L439.38-22.63Q439.8-22.63 439.8-22.05L439.8-22.05 439.8-18.09Q439.8-17.8 439.95-17.8L439.95-17.8Q440.14-17.8 440.95-18.95L440.95-18.95Q443.27-22.19 444.78-22.19L444.78-22.19Q445.63-22.19 447.4-21.51 449.17-20.83 449.17-20.36L449.17-20.36Q449.17-19.8 448.61-18.65 448.05-17.5 447.49-17.5ZM465.97-4.03Q465.97-3.39 466.57-3.02 467.16-2.64 467.95-2.64 468.73-2.64 469.25-3.04 469.78-3.44 469.97-3.44 470.17-3.44 470.17-2.92 470.17-2.39 469.68-2.03L469.68-2.03Q466.02 0.66 464.72 0.66L464.72 0.66Q463.16 0.66 462.18-2.59L462.18-2.59Q462.11-2.83 462.06-2.81L462.06-2.81Q459.03-0.54 458.25-0.07L458.25-0.07Q456.25 1.07 454.24 0.29 452.22-0.49 451.32-2.29L451.32-2.29Q450.88-3.22 450.88-4.27L450.88-4.27Q450.88-6.35 452.42-7.57 453.96-8.79 458.28-9.91L458.28-9.91Q459.74-10.3 460.89-10.91 462.04-11.52 462.1-11.69 462.16-11.87 462.16-12.01L462.16-12.01 462.16-16.7Q462.16-19.46 460.01-20.58L460.01-20.58Q459.3-20.95 458.31-20.95 457.33-20.95 456.31-20.17 455.3-19.38 455.3-17.94L455.3-17.94 455.42-16.99Q455.27-16.7 453.66-16.02 452.05-15.33 451.81-15.28L451.81-15.28Q451.42-15.28 451.42-16.22 451.42-17.16 451.98-18.31 452.54-19.46 453.57-20.41L453.57-20.41Q455.96-22.63 459.03-22.63 462.11-22.63 464.04-20.94 465.97-19.24 465.97-16.89L465.97-16.89 465.97-4.03ZM454.71-4.74Q454.71-3.56 455.62-2.7 456.52-1.83 457.68-1.83 458.84-1.83 460.5-2.82 462.16-3.81 462.16-4.86L462.16-4.86 462.16-9.81Q462.16-10.08 462.04-10.08 461.92-10.08 461.87-10.06L461.87-10.06 456.2-7.42Q455.32-6.79 455.02-6.35 454.71-5.91 454.71-4.74ZM491.65-19.7L491.65-19.7Q491.65-17.99 489.67-17.99L489.67-17.99Q488.67-17.99 487.97-18.57 487.28-19.14 486.9-19.54 486.52-19.95 486.11-20.29L486.11-20.29Q484.35-21.73 481.82-20.61 479.3-19.48 477.93-15.82L477.93-15.82Q477.17-13.79 477.17-11.79L477.17-11.79Q477.17-7.5 479.12-4.77 481.08-2.05 485.11-2.05L485.11-2.05Q488.11-2.05 490.5-4.74L490.5-4.74Q491.23-5.54 491.38-5.54 491.53-5.54 491.7-5.4 491.87-5.25 491.87-4.97 491.87-4.69 491.72-4.54L491.72-4.54Q487.99 0.66 482.32 0.66L482.32 0.66Q478.22 0.66 475.6-2.39 472.97-5.44 472.97-9.38L472.97-9.38Q473-16.65 476.49-19.85L476.49-19.85Q479.56-22.66 485.25-22.66L485.25-22.66Q488.77-22.66 489.92-21.95 491.06-21.24 491.53-20.17L491.53-20.17Q491.65-19.92 491.65-19.7ZM508.57-18.77L501.22-18.77Q501.07-18.77 501.07-18.55L501.07-18.55 501.07-5.08Q501.07-3.61 501.72-2.78 502.36-1.95 503.37-1.95 504.37-1.95 505.11-2.28 505.86-2.61 506.41-3 506.95-3.39 507.39-3.72 507.83-4.05 508.18-4.05 508.52-4.05 508.52-3.88L508.52-3.88Q508.52-3.3 508.39-3.13L508.39-3.13Q505.47 0.66 502.74 0.66 500.02 0.66 498.64-1.06 497.26-2.78 497.26-5.18L497.26-5.18 497.26-18.77 495.43-18.77Q494.75-18.77 494.71-19.21 494.67-19.65 494.84-19.78L494.84-19.78Q496.14-20.61 498.41-22.75L498.41-22.75Q498.65-23.02 499.07-23.56 499.48-24.1 500.28-25.02 501.07-25.95 501.49-25.95 501.9-25.95 501.9-25.61L501.9-25.61Q501.9-25.56 501.07-22.41L501.07-22.41Q501.07-21.97 501.46-21.95L501.46-21.95 507.69-21.95Q508.76-21.95 508.76-18.92L508.76-18.92Q508.76-18.77 508.57-18.77L508.57-18.77ZM521.97 0L511.08 0Q510.83-0.05 510.83-0.34L510.83-0.34Q510.83-0.78 511.98-0.93L511.98-0.93Q514.62-1.32 514.62-3.71L514.62-3.71 514.62-16.63Q514.62-17.65 513.49-18.04L513.49-18.04Q513.01-18.21 512.45-18.32 511.88-18.43 511.55-18.53 511.22-18.63 511.14-18.71 511.05-18.8 511.05-19.08 511.05-19.36 511.42-19.56L511.42-19.56 517.65-22.49Q517.94-22.63 518.01-22.63L518.01-22.63Q518.43-22.63 518.43-22.05L518.43-22.05 518.43-3.71Q518.43-1.32 521.06-0.93L521.06-0.93Q522.21-0.78 522.21-0.42 522.21-0.05 521.97 0L521.97 0ZM516.17-29.49Q515.15-29.49 514.39-30.13 513.62-30.76 513.62-31.9 513.62-33.03 514.35-33.69 515.08-34.35 516.09-34.35 517.11-34.35 517.8-33.57 518.5-32.79 518.5-31.88 518.5-30.98 517.84-30.24 517.18-29.49 516.17-29.49ZM544.3-19.7L544.3-19.7Q544.3-17.99 542.33-17.99L542.33-17.99Q541.32-17.99 540.63-18.57 539.93-19.14 539.55-19.54 539.18-19.95 538.76-20.29L538.76-20.29Q537-21.73 534.48-20.61 531.95-19.48 530.58-15.82L530.58-15.82Q529.83-13.79 529.83-11.79L529.83-11.79Q529.83-7.5 531.78-4.77 533.73-2.05 537.76-2.05L537.76-2.05Q540.76-2.05 543.16-4.74L543.16-4.74Q543.89-5.54 544.03-5.54 544.18-5.54 544.35-5.4 544.52-5.25 544.52-4.97 544.52-4.69 544.38-4.54L544.38-4.54Q540.64 0.66 534.98 0.66L534.98 0.66Q530.88 0.66 528.25-2.39 525.63-5.44 525.63-9.38L525.63-9.38Q525.65-16.65 529.14-19.85L529.14-19.85Q532.22-22.66 537.91-22.66L537.91-22.66Q541.42-22.66 542.57-21.95 543.72-21.24 544.18-20.17L544.18-20.17Q544.3-19.92 544.3-19.7ZM566.03-12.87L551.87-12.87Q551.45-12.87 551.45-11.08L551.45-11.08Q551.45-7.3 553.7-4.74 555.95-2.17 559.28-2.17 562.61-2.17 565.69-5.05L565.69-5.05Q565.74-5.1 565.81-5.1L565.81-5.1 565.93-5.1Q566.08-5.1 566.21-4.87 566.35-4.64 566.47-4.57L566.47-4.57Q563.64-1.12 559.8 0.2L559.8 0.2Q558.48 0.66 556.82 0.66 555.16 0.66 553.46-0.26 551.75-1.17 550.53-2.66L550.53-2.66Q547.94-5.76 547.94-10.39 547.94-15.01 550.76-18.82 553.58-22.63 558.51-22.63L558.51-22.63Q562.05-22.63 564.3-19.47 566.54-16.31 566.54-13.92L566.54-13.92Q566.54-12.87 566.03-12.87L566.03-12.87ZM552.14-15.5L552.14-15.21Q552.14-14.75 552.58-14.75L552.58-14.75 561.78-14.75Q562.42-14.75 562.42-15.5L562.42-15.5Q562.42-17.26 560.84-19.1 559.27-20.95 557.39-20.95L557.39-20.95Q555.56-20.95 554.05-19.29 552.55-17.63 552.14-15.5L552.14-15.5Z" opacity="1" transform="matrix(1,0,0,1,0,0)" fill="#ffffff" class="slogan-text-1" data-fill-palette-color="secondary" id="text-1"></path></svg></g></svg></g></svg></g></svg></g><g transform="matrix(1,0,0,1,62.72905879714312,0)"><svg viewBox="0 0 66.54188240571376 66.54216162656432" height="66.54216162656432" width="66.54188240571376"><g><svg xmlns="http://www.w3.org/2000/svg" xmlns:xlink="http://www.w3.org/1999/xlink" version="1.1" x="0" y="0" viewBox="2 2.9997501373291016 60 60.00025177001953" enable-background="new 0 0 64 64" xml:space="preserve" height="66.54216162656432" width="66.54188240571376" class="icon-icon-0" data-fill-palette-color="accent" id="icon-0"><g fill="#ffffff" data-fill-palette-color="accent"><g fill="#ffffff" data-fill-palette-color="accent"><path d="M31.2 31.6c0.188 0.252 0.485 0.4 0.8 0.4s0.611-0.148 0.8-0.4l3-4c0.332-0.442 0.242-1.069-0.2-1.4-0.443-0.332-1.069-0.241-1.4 0.2L32 29.333 29.8 26.4c-0.331-0.441-0.956-0.532-1.4-0.2-0.442 0.331-0.531 0.958-0.2 1.4L31.2 31.6z" fill="#ffffff" data-fill-palette-color="accent"></path><path d="M31.168 47.555C31.354 47.833 31.666 48 32 48s0.646-0.167 0.832-0.445l2-3c0.306-0.459 0.182-1.081-0.277-1.387-0.46-0.308-1.081-0.182-1.387 0.277L32 45.197l-1.168-1.752c-0.307-0.459-0.928-0.585-1.387-0.277-0.459 0.306-0.583 0.927-0.277 1.387L31.168 47.555z" fill="#ffffff" data-fill-palette-color="accent"></path><path d="M33.445 49.168c-0.459 0.306-0.583 0.927-0.277 1.387l2 3C35.354 53.833 35.666 54 36 54s0.646-0.167 0.832-0.445l2-3c0.306-0.459 0.182-1.081-0.277-1.387-0.46-0.308-1.081-0.182-1.387 0.277L36 51.197l-1.168-1.752C34.526 48.986 33.904 48.86 33.445 49.168z" fill="#ffffff" data-fill-palette-color="accent"></path><path d="M27.168 53.555C27.354 53.833 27.666 54 28 54s0.646-0.167 0.832-0.445l2-3c0.306-0.459 0.182-1.081-0.277-1.387-0.46-0.308-1.081-0.182-1.387 0.277L28 51.197l-1.168-1.752c-0.307-0.459-0.928-0.585-1.387-0.277-0.459 0.306-0.583 0.927-0.277 1.387L27.168 53.555z" fill="#ffffff" data-fill-palette-color="accent"></path><path d="M60.317 55.335C60.127 55.122 59.855 55 59.57 55h-7.39-5.781c-0.446-0.333-0.874-0.708-1.29-1.108C48.218 50.457 50 45.714 50 40.75c0-6.193-2.797-11.989-7.335-15.324l1.295-5.193c0.001-0.006-0.001-0.012 0-0.019 0.002-0.009 0.008-0.018 0.011-0.027C43.99 20.11 44 20.03 44 19.95v-3.673l6-2.4v6.292c-1.162 0.379-2 1.388-2 2.581V26c0 0.552 0.448 1 1 1s1-0.448 1-1v-3.25c0-0.407 0.458-0.75 1-0.75s1 0.343 1 0.75V26c0 0.552 0.448 1 1 1s1-0.448 1-1v-3.25c0-1.193-0.838-2.202-2-2.581v-7.092l0.372-0.148C52.751 12.777 53 12.409 53 12s-0.249-0.776-0.628-0.929l-20-8c-0.239-0.095-0.504-0.095-0.743 0l-20 8C11.249 11.224 11 11.591 11 12s0.249 0.777 0.628 0.929L20 16.277v3.673c0 0.08 0 0.2 0.019 0.277 0 0.001-0.019 0.002-0.019 0.003s0 0.001 0 0.002l1.317 5.204c-4.539 3.336-7.327 9.144-7.327 15.339 0 4.963 1.787 9.684 4.894 13.116-0.417 0.401-0.844 0.775-1.292 1.109H12.9c-0.171 0-0.333 0.049-0.479 0.129l-9.709 2.913C2.29 58.169 2 58.559 2 59s0.29 0.831 0.712 0.958l9.709 2.913C12.566 62.951 12.729 63 12.9 63h39.28 7.39c0.285 0 0.557-0.122 0.747-0.335C61.101 61.785 62 60.572 62 59S61.101 56.215 60.317 55.335zM48 40.75c0 4.42-1.542 8.61-4.262 11.664C40.13 47.968 38 40.999 38 33.5c0-0.625 0.018-1.282 0.053-1.958l3.561-2.782c0 0 0-0.001 0-0.001l0.001 0c0.031-0.024 0.051-0.058 0.078-0.085 0.051-0.05 0.106-0.098 0.145-0.158 0.024-0.037 0.034-0.081 0.053-0.121 0.029-0.06 0.063-0.117 0.08-0.182l0.168-0.673C45.784 30.565 48 35.493 48 40.75zM22.221 20.114c0.177-0.195 0.369-0.375 0.567-0.546 0.072-0.062 0.138-0.131 0.212-0.19v-0.007c0.31-0.247 0.641-0.468 0.995-0.66 1.011-0.545 2.145-0.833 3.279-0.833 1.719 0 3.171 0.663 3.885 1.773C31.343 19.937 31.66 20.11 32 20.11s0.657-0.173 0.841-0.459c0.714-1.111 2.166-1.773 3.884-1.773 1.587 0 3.112 0.563 4.319 1.54 0.179 0.144 0.35 0.299 0.514 0.46 0.053 0.052 0.104 0.106 0.155 0.16 0.064 0.067 0.121 0.141 0.182 0.21l-1.334 5.349c0 0.001-0.001 0.002-0.001 0.003l-0.281 1.129-0.166 0.664L32 33.731l-4.463-3.486c-0.001-0.001-0.001-0.002-0.002-0.002l-1.273-0.994-2.375-1.855-0.255-1.024-0.191-0.769c0 0 0 0 0 0l-1.335-5.353C22.144 20.204 22.181 20.158 22.221 20.114zM22.072 17.572c-0.023 0.017-0.049 0.028-0.072 0.045V15.6v-0.782C24.752 12.353 28.286 11 32 11s7.248 1.353 10 3.818V15.6v2.018c-0.057-0.042-0.12-0.072-0.178-0.112-0.223-0.157-0.453-0.301-0.689-0.436-0.046-0.026-0.087-0.059-0.133-0.084v0.008c-1.295-0.713-2.762-1.116-4.274-1.116-1.88 0-3.563 0.616-4.726 1.692-1.163-1.076-2.846-1.692-4.727-1.692-1.464 0-2.926 0.371-4.23 1.074C22.702 17.136 22.381 17.348 22.072 17.572zM28 33.5c0-0.117-0.005-0.241-0.006-0.36l3.39 2.648C31.565 35.929 31.783 36 32 36s0.435-0.071 0.616-0.212l3.391-2.648C36.005 33.267 36 33.401 36 33.525c0 8.459 2.604 16.363 6.964 21.102 0.07 0.077 0.154 0.146 0.243 0.206 0.053 0.055 0.104 0.112 0.157 0.167H20.636c0.053-0.055 0.105-0.111 0.158-0.167 0.088-0.061 0.172-0.129 0.242-0.206C25.396 49.889 28 41.959 28 33.5zM20.312 13.654c-0.089 0.084-0.153 0.187-0.206 0.295-0.014 0.029-0.024 0.057-0.036 0.087-0.013 0.034-0.032 0.064-0.041 0.099L14.692 12 32 5.077 49.308 12l-5.338 2.135c-0.009-0.035-0.028-0.065-0.041-0.099-0.011-0.03-0.021-0.059-0.036-0.087-0.052-0.108-0.117-0.21-0.206-0.295C40.521 10.653 36.37 9 32 9S23.479 10.653 20.312 13.654zM16 40.75c0-5.257 2.216-10.185 5.862-13.211l0.168 0.672c0.054 0.217 0.179 0.41 0.355 0.547l3.563 2.783C25.982 32.218 26 32.875 26 33.5c0 7.499-2.13 14.468-5.738 18.914C17.542 49.36 16 45.17 16 40.75zM12.855 59.916c-0.084 0.306-0.209 0.603-0.373 0.885L6.48 59l6.002-1.801c0.164 0.283 0.29 0.582 0.377 0.899 0.08 0.275 0.121 0.579 0.121 0.901S12.939 59.626 12.855 59.916zM51.715 61h-0.014H18h-3.399-0.019c0.07-0.18 0.147-0.358 0.198-0.541 0.132-0.457 0.2-0.948 0.2-1.459s-0.067-1.002-0.196-1.444c-0.052-0.19-0.131-0.372-0.203-0.556h0.019 3.339H18h28.06c0.007 0 0.013 0 0.02 0h5.621 0.014c0.61 0.762 0.875 1.375 0.875 2S52.325 60.238 51.715 61zM59.108 61H56h-1.903-0.005c0.294-0.587 0.498-1.251 0.498-2s-0.204-1.413-0.498-2h0.005H56h3.108C59.73 57.765 60 58.378 60 59S59.73 60.235 59.108 61z" fill="#ffffff" data-fill-palette-color="accent"></path></g></g></svg></g></svg></g><g></g></svg></g></svg></g></svg></g></svg></g><defs></defs></svg><rect width="320" height="360" fill="none" stroke="none" visibility="hidden"></rect></g></svg></g></svg>